<?xml version="1.0" encoding="UTF-8"?>
<svg enable-background="new 0 0 266 100" viewBox="0 0 266 100" xmlns="http://www.w3.org/2000/svg">
 <path d="m0 0h266v100h-266z" fill="#3b5998"/>
 <path d="m140.02 49.597c-1.7842 0-3.0703 0.58496-4.374 1.1812v13.486c1.249 0.11914 1.9648 0.11914 3.1504 0.11914 4.2822 0 4.8691-1.9609 4.8691-4.6992v-6.4414c0-2.0215-0.6709-3.6455-3.6455-3.6455zm-28.438-0.73584c-2.9707 0-3.6494 1.6314-3.6494 3.6509v1.1348h7.2944v-1.1348c0-2.0195-0.67773-3.6509-3.645-3.6509zm-55.09 14.038c0 1.5977 0.75391 2.4277 2.418 2.4277 1.7852 0 2.8418-0.58203 4.1445-1.1797v-3.1992h-3.9033c-1.8472 0-2.6592 0.34375-2.6592 1.9512zm111.19-13.302c-2.9756 0-4.0068 1.624-4.0068 3.6455v7.3789c0 2.0273 1.0312 3.6562 4.0068 3.6562 2.9678 0 4.0068-1.6289 4.0068-3.6562v-7.3789c0-2.0215-1.0391-3.6455-4.0068-3.6455zm-125.77 21.575h-8.7476v-21.174h-4.3716v-7.2964h4.3716v-4.3809c0-5.9526 2.4673-9.4922 9.479-9.4922h5.8379v7.2978h-3.6489c-2.73 0-2.9097 1.0195-2.9097 2.9228l-0.01074 3.6523h6.6104l-0.77344 7.2964h-5.8369v21.174zm29.897 0.05469h-7.2905l-0.31592-1.8438c-3.3291 1.8438-6.3003 2.1426-8.2602 2.1426-5.3467 0-8.1934-3.5723-8.1934-8.5117 0-5.8281 3.3208-7.9082 9.2622-7.9082h6.0469v-1.2598c0-2.9741-0.34082-3.8481-4.9155-3.8481h-7.48l0.73145-7.2964h8.1763c10.038 0 12.239 3.1709 12.239 11.203v17.322zm24.793-20.694c-4.5371-0.77734-5.8398-0.94824-8.023-0.94824-3.9214 0-5.1064 0.86523-5.1064 4.1948v6.2988c0 3.3301 1.1851 4.1992 5.1064 4.1992 2.1831 0 3.4858-0.17383 8.023-0.95508v7.1172c-3.9741 0.89063-6.563 1.125-8.7515 1.125-9.3921 0-13.125-4.9394-13.125-12.074v-5.1113c0-7.1411 3.7334-12.089 13.125-12.089 2.1885 0 4.7773 0.23535 8.7515 1.1299v7.1128zm27.376 8.9575h-16.042v0.58789c0 3.3301 1.186 4.1992 5.1064 4.1992 3.5244 0 5.6753-0.17383 10.204-0.95508v7.1172c-4.3677 0.89063-6.6436 1.125-10.929 1.125-9.3926 0-13.128-4.9394-13.128-12.074v-5.8438c0-6.2427 2.7715-11.356 12.396-11.356s12.393 5.0542 12.393 11.356v5.8438zm28.437 0.13477c0 6.8965-1.9707 11.926-13.911 11.926-4.3115 0-6.8408-0.37891-11.6-1.1113v-39.42l8.7451-1.4595v13.789c1.8896-0.70215 4.3359-1.0586 6.5625-1.0586 8.7461 0 10.203 3.9209 10.203 10.222v7.1133zm28.033 0.15039c0 5.9492-2.456 11.719-12.732 11.719s-12.783-5.7695-12.783-11.719v-5.7441c0-5.9522 2.502-11.723 12.783-11.723s12.732 5.7705 12.732 11.723v5.7441zm28.014 0c0 5.9492-2.459 11.719-12.733 11.719-10.281 0-12.783-5.7695-12.783-11.719v-5.7441c0-5.9522 2.502-11.723 12.783-11.723 10.274 0 12.733 5.7705 12.733 11.723v5.7441zm28.749 11.396h-9.4795l-8.0166-13.383v13.383h-8.748v-40.153l8.748-1.4595v25.849l8.0166-12.707h9.4795l-8.752 13.867 8.752 14.604zm-41.512-21.575c-2.9707 0-4.002 1.624-4.002 3.6455v7.3789c0 2.0273 1.0312 3.6562 4.002 3.6562s4.0166-1.6289 4.0166-3.6562v-7.3789c0-2.0215-1.0498-3.6455-4.0166-3.6455z" fill="#fff"/>
 <path d="m242.20117,66.17773c1.47266,0 2.64648,1.20117 2.64648,2.70117 0,1.52344-1.17383,2.71094-2.65723,2.71094s-2.67285-1.1875-2.67285-2.71094c0-1.5 1.19727-2.70117 2.67285-2.70117h.01074zm-.01074.41992c-1.18652,0-2.1582,1.02148-2.1582,2.28125 0,1.2832.97168,2.29102 2.16895,2.29102 1.19824.01172 2.15527-1.00781 2.15527-2.2793s-.95703-2.29297-2.15527-2.29297h-.01074zm-.50391,3.85352h-.48047v-3.01367c.25195-.03516.49219-.07031.85156-.07031 .45605,0 .75391.0957.93652.22656s.27246.33594.27246.62305c0,.39844-.26172.63672-.58496.73438v.02344c.2627.04883.44238.28711.50293.73047 .07031.46875.14258.64844.19043.74609h-.50293c-.07129-.09766-.14355-.37305-.2041-.76953-.07031-.38281-.26367-.52734-.64844-.52734h-.33301v1.29687zm0-1.66797h.34766c.39355,0 .72852-.14453.72852-.51758 0-.26367-.19043-.52734-.72852-.52734-.15723,0-.26563.01172-.34766.02344v1.02148z" fill="#fff"/>
</svg>
