<?xml version="1.0" encoding="UTF-8"?>
<svg viewBox="0 0 102.75 39.417" xmlns="http://www.w3.org/2000/svg">
 <path d="m24.42,4.939c-.205.204-.4.403-.598.6-.641.632-1.284,1.263-1.92,1.9-.135.134-.278.225-.467.258-.21.003-.435.103-.635.103-.071.017-.145.021-.259.037l.792-1.336c-.054-.075-.099-.148-.154-.211-.501-.578-1.059-1.093-1.711-1.499-.291-.182-.58-.367-.878-.536-.233-.131-.473-.253-.721-.354-.567-.229-1.155-.393-1.75-.532-.327-.077-.659-.085-.99-.099-.989-.041-1.971.007-2.941.2-1.583.43-2.988,1.23-4.088,2.329-1.41,1.401-2.3,3.101-2.7,4.974-.261,1.29-.32,2.59-.204,3.9 .122,1.4.4,2.7 1,3.979 .471,1.1 1.1,2.1 1.9,3.073 .453.6.9,1.1 1.5,1.6 1.348,1.2 2.9,1.9 4.7,2.327 1.244.3 2.5.4 3.8.251 .319-.029.642-.068.952-.148 .57-.146 1.132-.323 1.697-.493 .131-.039.257-.099.371-.145l.027-.044c.004-.01.01-.02.01-.03 .003-1.737.007-3.473.009-5.21 0-.065-.007-.129-.012-.192-.001-.008-.013-.017-.038-.047-.515-.022-1.045.044-1.577.066-.535.023-1.071.051-1.606.1l-1.603.092c-.026-.058.006-.08.045-.102l2.305-1.28c.097-.054.194-.08.306-.076h.6 5.9 .3c.03.083-.023.114-.059.148-.239.229-.469.472-.724.685-.242.202-.346.452-.354.8-.015.546-.045,1.093-.048,1.639-.008,1.222-.001,2.444-.002,3.668 0,.105-.007.21-.011.3l-.159.055c-1.488.36-2.975.732-4.468,1.072-.657.15-1.327.24-1.995.3-.763.118-1.532.182-2.303.229-.868.051-1.735.053-2.603-.022-.941-.082-1.872-.221-2.788-.459-1.365-.309-2.468-.809-3.568-1.514-.795-.542-1.486-1.195-2.07-1.96-.864-1.129-1.6-2.331-2.138-3.651-.432-1.057-.72-2.154-.85-3.288-.1-.865-.1-1.732-.029-2.601 .133-1.632.545-3.184 1.277-4.65 .554-1.112 1.273-2.106 2.103-3.028 1.606-1.785 3.595-2.92 5.905-3.519 .926-.238 1.867-.377 2.82-.462 1.388-.124 2.762-.019 4.1.192 1.404.2 2.8.6 4.1,1.125 .876.3 1.6.9 2.4,1.4 .06.047.082.047.082.086z" fill="#174cf3" fill-rule="evenodd"/>
 <path d="m79.168,11.285c-.097.065-.136.094-.179.1-.574.335-1.149.667-1.724,1.003-.113.068-.229.099-.363.097h-1.544c-.071,0-.147-.025-.211.029-.015.1 0,.1.1.122 .906.7 1.5,1.6 1.9,2.7 .117.3.2.6.2.974 .074.8 0,1.651-.174,2.458-.138.512-.356.986-.675,1.4-.323.43-.666.84-1.072,1.195-.153.134-.298.279-.454.408-.335.279-.592.619-.828,1-.229.349-.294.733-.242,1.139 .026.2.1.4.2.584 .243.3.5.6.8.8 .459.4.9.7 1.4,1.134s.843.8 1.2,1.273c.455.5.7,1.1.9,1.8 .246,1.1.2,2.213-.223,3.284-.296.738-.744,1.372-1.288,1.946-.937.991-2.077,1.642-3.374,2-.793.242-1.604.381-2.428.461-.675.064-1.35.08-2.024.046-.955-.048-1.896-.19-2.809-.497-.987-.332-1.827-.889-2.536-1.646s-1.093-1.657-1.098-2.704c-.002-.478.115-.933.265-1.382 .422-1.268 1.275-2.164 2.416-2.812 1.062-.602 2.194-1.025 3.399-1.226 .856-.143 1.719-.243 2.587-.286 .107-.005.215-.014.321-.024 .019-.001.036-.019.07-.039-.021-.044-.038-.09-.063-.133-.182-.302-.377-.6-.547-.909-.367-.665-.42-1.36-.175-2.079l.161-.478c-.087-.086-.174-.044-.252-.036-.905.085-1.8.029-2.677-.223s-1.623-.71-2.235-1.391c-.354-.391-.687-.795-.94-1.259-.368-.68-.571-1.406-.608-2.179-.071-1.431.358-2.705 1.205-3.847 1.071-1.445 2.504-2.312 4.259-2.66 .885-.177 1.781-.26 2.684-.257h6.3c.105.129.208.129.408.114zm-7.347,16.415c0-.012-.002-.022-.002-.034-.459.036-.919.051-1.377.1-.595.077-1.181.208-1.756.377-.661.194-1.302.442-1.844.88-1.099.891-1.515,2.042-1.267,3.4 .133.7.5,1.4 1.1,1.861 .655.6 1.4,1 2.3,1.27 1.321.4 2.7.4 4,.2 .528-.097 1.038-.258 1.514-.515 .607-.327 1.104-.775 1.445-1.379 .316-.558.423-1.161.402-1.795-.023-.709-.251-1.341-.675-1.907-.195-.26-.435-.473-.676-.687-.675-.597-1.399-1.13-2.132-1.656-.128-.092-.264-.138-.418-.138-.228.023-.435.023-.635.023zm2.619-8.956c-.001-.42-.044-.836-.106-1.25-.163-1.057-.519-2.052-1.01-2.999-.22-.421-.495-.8-.83-1.139-.448-.456-.984-.745-1.609-.882-1.4-.309-2.703.469-3.195,1.486-.146.299-.272.605-.354.928-.188.763-.156,1.531-.03,2.3 .16,1 .5,1.9 1,2.74 .336.6.8,1.1 1.3,1.589 1.265,1 3,.8 4.06-.184 .046-.044.097-.086.131-.139 .272-.405.475-.843.542-1.328 .06-.366.061-.766.061-1.122z" fill="#174cf3" fill-rule="evenodd"/>
 <path d="m44.182,18.723c-.008,2.25-.704,4.039-1.977,5.6-1.136,1.413-2.604,2.257-4.361,2.638-.599.129-1.206.192-1.815.236-.441.034-.879-.014-1.315-.06-.791-.085-1.562-.264-2.298-.571-.965-.401-1.795-.993-2.482-1.783-.702-.806-1.29-1.683-1.683-2.683-.345-.875-.534-1.783-.556-2.725-.028-1.182.144-2.331.596-3.427 .15-.364.321-.728.529-1.062 1.309-2.096 3.151-3.436 5.6-3.898 .708-.134 1.421-.209 2.141-.178 .914,0 1.8.2 2.7.5 1.057.4 2,1 2.7,1.822 1.178,1.3 1.9,2.8 2.1,4.518 .089.45.139.85.139,1.073zm-13.28-1.523c-.001.5 0,1.1.1,1.666 .081.4.2.8.3,1.258 .188,1 .5,1.9.9,2.7 .469,1 1.1,1.8 2,2.54 .397.3.8.6 1.3.678 .57.1 1.1.2 1.7.1 .928-.163 1.718-.588 2.344-1.293 .498-.559.852-1.204 1.055-1.929 .12-.425.164-.86.206-1.299 .108-1.128.036-2.247-.181-3.357-.207-1.056-.528-2.076-.939-3.066-.352-.854-.842-1.617-1.525-2.242-1.045-.962-2.286-1.293-3.66-1.01-1.672.347-2.765,1.382-3.32,2.986-.209.768-.282,1.468-.282,2.287z" fill="#df2031" fill-rule="evenodd"/>
 <path d="m62.604,18.949c-.025,1.878-.615,3.558-1.732,5.1-.404.542-.852,1.045-1.382,1.474-.64.517-1.35.908-2.123,1.183-1.112.398-2.261.585-3.438.6-1.164-.029-2.296-.248-3.364-.743-.848-.393-1.584-.935-2.201-1.639-.539-.614-1.017-1.271-1.389-2.002-.575-1.125-.874-2.319-.88-3.587-.007-1.127.168-2.218.588-3.267 .303-.751.714-1.439 1.232-2.06 .778-.933 1.689-1.703 2.793-2.229 .778-.371 1.596-.612 2.449-.743 .638-.099 1.278-.148 1.923-.114 .969,0 1.9.2 2.8.6 1.168.5 2.1,1.2 2.9,2.23 .929,1.2 1.5,2.5 1.7,4 .074.348.12.748.12,1.197zm-13.295-1.747c-.009.6 0,1.1.1,1.7 .078.4.2.8.2,1.228 .17.9.5,1.7.8,2.533 .478,1.1 1.2,2 2.1,2.8 .269.2.6.4.9.53 .495.2 1,.3 1.5.269 .852-.014 1.625-.271 2.313-.76 .873-.621 1.407-1.484 1.715-2.496 .136-.443.173-.902.218-1.361 .093-.967.047-1.928-.104-2.883-.154-.976-.425-1.922-.761-2.851-.216-.595-.461-1.176-.805-1.713-.367-.573-.794-1.097-1.346-1.496-.991-.719-2.103-.955-3.293-.702-1.669.355-2.764,1.384-3.318,2.99-.151.71-.228,1.41-.228,2.212z" fill="#fec124" fill-rule="evenodd"/>
 <path d="m87.713,26.041c-.055.061-.069.09-.094.1l-.938.558c-.106.064-.216.083-.336.083l-1.737-.001h-3.505-.383c.022-.063.029-.114.057-.15 .156-.217.312-.435.48-.644 .213-.264.289-.568.301-.897 .005-.127.002-.257.004-.386 .005-3.087-.002-6.176.021-9.263 .018-2.186.068-4.374.123-6.56 .035-1.457.105-2.913.158-4.37 .006-.212 0-.427 0-.663-.082-.006-.165-.02-.247-.02l-1.866-.002-.31-.008c-.016-.077.041-.082.073-.099l2.103-1.039c.105-.053.213-.088.335-.088l4.5.001c.03.078-.032.092-.07.119-.168.116-.338.228-.506.3-.447.301-.686.731-.746,1.256-.053.447-.096.896-.124,1.345-.167,2.611-.216,5.227-.229,7.8-.008,2.069-.005,4.138-.007,6.206-.001,1.426-.001,2.9 0,4.279 .002.2 0,.5 0,.7 .007.1 0,.2 0,.316 .068.4.3.6.7.743 .195,0 .4.1.6.1 .567.143 1.13.243 1.63.284z" fill="#14b824" fill-rule="evenodd"/>
 <path d="m101.374,24.463 0,0c-.048.058-.096.116-.15.168l-1.297,1.25c-.067.066-.145.127-.226.2-.661.427-1.374.74-2.137.937-.943.247-1.897.325-2.868.211-.511-.061-1.021-.117-1.518-.264-.916-.269-1.74-.714-2.463-1.339-1.113-.964-1.871-2.164-2.364-3.544-.365-1.017-.594-2.06-.608-3.141-.02-1.299.163-2.565.678-3.769 .388-.903.952-1.674 1.703-2.309 .777-.651 1.617-1.197 2.565-1.569 1.015-.396 2.066-.556 3.151-.476 .964.1 1.9.3 2.7.838 .622.4 1.2.8 1.6,1.4 .367.5.6,1 .8,1.615 .048.1.1.3.1.445l-.211.1-7.347,3.07c-.129.053-.26.09-.401.102-.684.055-1.366.116-2.05.2l-.282.029c-.005.051-.019.083-.012.112 .269,1.2.7,2.3 1.3,3.4 .541.9 1.2,1.6 2.1,2.24 .831.6 1.8,1 2.8,1.115 .958.1 1.9,0 2.812-.345l1.511-.632c.037-.017.08-.022.121-.032l-.007-.012zm-10.664-5.963c.124,0 .214-.054.309-.097l4.131-1.845 1.854-.806c.169-.073.326-.16.457-.291 .169-.17.249-.377.227-.612-.014-.17-.046-.34-.087-.505-.138-.547-.452-.989-.838-1.387-1.125-1.159-2.915-1.224-4.083-.501-.566.349-1.025.804-1.363,1.4-.418.717-.646,1.487-.693,2.317-.034.6-.009,1.2 0,1.798 .033.129.076.329.076.508z" fill="#df2031" fill-rule="evenodd"/>
 <path d="m101.38,24.472c.005-.009.006-.024.013-.025 .024-.007.05-.01.073-.014v.027c-.014.012-.032.026-.049,0-.014.002-.027-.015-.043-.024l.006.036z" fill="#df2031" fill-rule="evenodd"/>
</svg>
